<svg xmlns="http://www.w3.org/2000/svg" xmlns:xlink="http://www.w3.org/1999/xlink" width="250" zoomAndPan="magnify" viewBox="0 0 187.5 187.499992" height="250" preserveAspectRatio="xMidYMid meet" version="1.2"><defs><clipPath id="f0d18aa671"><path d="M 24.777344 24.777344 L 162.222656 24.777344 L 162.222656 162.222656 L 24.777344 162.222656 Z M 24.777344 24.777344 "/></clipPath><clipPath id="4e36b7be96"><path d="M 34.128906 24.777344 L 152.875 24.777344 C 158.039062 24.777344 162.222656 28.964844 162.222656 34.128906 L 162.222656 152.875 C 162.222656 158.039062 158.039062 162.222656 152.875 162.222656 L 34.128906 162.222656 C 28.964844 162.222656 24.777344 158.039062 24.777344 152.875 L 24.777344 34.128906 C 24.777344 28.964844 28.964844 24.777344 34.128906 24.777344 Z M 34.128906 24.777344 "/></clipPath></defs><g id="2f03fa1049"><g clip-rule="nonzero" clip-path="url(#f0d18aa671)"><g clip-rule="nonzero" clip-path="url(#4e36b7be96)"><path style=" stroke:none;fill-rule:nonzero;fill:#3b82f6;fill-opacity:1;" d="M 24.777344 24.777344 L 162.222656 24.777344 L 162.222656 162.222656 L 24.777344 162.222656 Z M 24.777344 24.777344 "/></g></g><g style="fill:#322f30;fill-opacity:0.4;"><g transform="translate(66.439504, 117.963991)"><path style="stroke:none" d="M 34.609375 -11.796875 C 36.597656 -11.796875 38.523438 -12.09375 40.390625 -12.6875 C 42.265625 -13.289062 43.644531 -13.867188 44.53125 -14.421875 L 45.84375 -15.328125 L 51.390625 -4.234375 C 51.210938 -4.085938 50.957031 -3.898438 50.625 -3.671875 C 50.300781 -3.441406 49.550781 -3.015625 48.375 -2.390625 C 47.195312 -1.765625 45.9375 -1.21875 44.59375 -0.75 C 43.257812 -0.289062 41.503906 0.117188 39.328125 0.484375 C 37.148438 0.859375 34.90625 1.046875 32.59375 1.046875 C 27.28125 1.046875 22.238281 -0.257812 17.46875 -2.875 C 12.707031 -5.488281 8.867188 -9.082031 5.953125 -13.65625 C 3.046875 -18.238281 1.59375 -23.1875 1.59375 -28.5 C 1.59375 -32.53125 2.445312 -36.394531 4.15625 -40.09375 C 5.875 -43.789062 8.15625 -46.957031 11 -49.59375 C 13.84375 -52.226562 17.160156 -54.332031 20.953125 -55.90625 C 24.742188 -57.476562 28.625 -58.265625 32.59375 -58.265625 C 36.289062 -58.265625 39.703125 -57.820312 42.828125 -56.9375 C 45.953125 -56.0625 48.160156 -55.1875 49.453125 -54.3125 L 51.390625 -52.984375 L 45.84375 -41.890625 C 45.519531 -42.171875 45.035156 -42.503906 44.390625 -42.890625 C 43.742188 -43.285156 42.445312 -43.804688 40.5 -44.453125 C 38.5625 -45.109375 36.597656 -45.4375 34.609375 -45.4375 C 31.460938 -45.4375 28.640625 -44.925781 26.140625 -43.90625 C 23.648438 -42.882812 21.675781 -41.539062 20.21875 -39.875 C 18.757812 -38.21875 17.648438 -36.425781 16.890625 -34.5 C 16.128906 -32.582031 15.75 -30.628906 15.75 -28.640625 C 15.75 -24.296875 17.378906 -20.398438 20.640625 -16.953125 C 23.898438 -13.515625 28.554688 -11.796875 34.609375 -11.796875 Z M 34.609375 -11.796875 "/></g></g><g style="fill:#ffffff;fill-opacity:1;"><g transform="translate(66.439504, 117.963991)"><path style="stroke:none" d="M 34.609375 -11.796875 C 36.597656 -11.796875 38.523438 -12.09375 40.390625 -12.6875 C 42.265625 -13.289062 43.644531 -13.867188 44.53125 -14.421875 L 45.84375 -15.328125 L 51.390625 -4.234375 C 51.210938 -4.085938 50.957031 -3.898438 50.625 -3.671875 C 50.300781 -3.441406 49.550781 -3.015625 48.375 -2.390625 C 47.195312 -1.765625 45.9375 -1.21875 44.59375 -0.75 C 43.257812 -0.289062 41.503906 0.117188 39.328125 0.484375 C 37.148438 0.859375 34.90625 1.046875 32.59375 1.046875 C 27.28125 1.046875 22.238281 -0.257812 17.46875 -2.875 C 12.707031 -5.488281 8.867188 -9.082031 5.953125 -13.65625 C 3.046875 -18.238281 1.59375 -23.1875 1.59375 -28.5 C 1.59375 -32.53125 2.445312 -36.394531 4.15625 -40.09375 C 5.875 -43.789062 8.15625 -46.957031 11 -49.59375 C 13.84375 -52.226562 17.160156 -54.332031 20.953125 -55.90625 C 24.742188 -57.476562 28.625 -58.265625 32.59375 -58.265625 C 36.289062 -58.265625 39.703125 -57.820312 42.828125 -56.9375 C 45.953125 -56.0625 48.160156 -55.1875 49.453125 -54.3125 L 51.390625 -52.984375 L 45.84375 -41.890625 C 45.519531 -42.171875 45.035156 -42.503906 44.390625 -42.890625 C 43.742188 -43.285156 42.445312 -43.804688 40.5 -44.453125 C 38.5625 -45.109375 36.597656 -45.4375 34.609375 -45.4375 C 31.460938 -45.4375 28.640625 -44.925781 26.140625 -43.90625 C 23.648438 -42.882812 21.675781 -41.539062 20.21875 -39.875 C 18.757812 -38.21875 17.648438 -36.425781 16.890625 -34.5 C 16.128906 -32.582031 15.75 -30.628906 15.75 -28.640625 C 15.75 -24.296875 17.378906 -20.398438 20.640625 -16.953125 C 23.898438 -13.515625 28.554688 -11.796875 34.609375 -11.796875 Z M 34.609375 -11.796875 "/></g></g></g></svg>